<?xml version="1.0" encoding="utf-8"?>
<!-- Svg Vector Icons : http://www.onlinewebfonts.com/icon -->
<!DOCTYPE svg PUBLIC "-//W3C//DTD SVG 1.1//EN" "http://www.w3.org/Graphics/SVG/1.1/DTD/svg11.dtd">
<svg version="1.1" xmlns="http://www.w3.org/2000/svg" xmlns:xlink="http://www.w3.org/1999/xlink" x="0px" y="0px" viewBox="0 0 256 256" enable-background="new 0 0 256 256" xml:space="preserve">
<metadata> Svg Vector Icons : http://www.onlinewebfonts.com/icon </metadata>
<g><g><g><g id="_x35__5_"><g><path fill="#000000" d="M128,10C62.8,10,10,62.8,10,128c0,65.2,52.8,118,118,118c65.2,0,118-52.8,118-118C246,62.8,193.2,10,128,10z M176.2,134.5l-41.7,41.7c-2.9,2.9-7.6,2.9-10.4,0c-2.9-2.9-2.9-7.6,0-10.4l30.4-30.4H76.4c-4.1,0-7.4-3.3-7.4-7.4s3.3-7.4,7.4-7.4h78.1l-30.4-30.4c-2.9-2.9-2.9-7.6,0-10.4c2.9-2.9,7.6-2.9,10.4,0l41.7,41.7c1.8,1.8,2.3,4.2,1.9,6.5C178.5,130.3,178,132.7,176.2,134.5z"/></g></g></g><g></g><g></g><g></g><g></g><g></g><g></g><g></g><g></g><g></g><g></g><g></g><g></g><g></g><g></g><g></g></g></g>
</svg>